STARTFONT 2.3
FONT -FontForge-Fredoka One-Book-R-Normal--10-100-72-72-P-57-ISO10646-1
SIZE 10 72 72  2
FONTBOUNDINGBOX 14 13 -2 -3
COMMENT "Generated by fontforge, http://fontforge.sourceforge.net"
COMMENT "Copyright (c) 2011 Milena B Brandao (milenabbrandao@gmail.com), with Reserved Font Name "Fredoka""
STARTPROPERTIES 40
FOUNDRY "FontForge"
FAMILY_NAME "Fredoka One"
WEIGHT_NAME "Book"
SLANT "R"
SETWIDTH_NAME "Normal"
ADD_STYLE_NAME ""
PIXEL_SIZE 10
POINT_SIZE 100
RESOLUTION_X 72
RESOLUTION_Y 72
SPACING "P"
AVERAGE_WIDTH 57
CHARSET_REGISTRY "ISO10646"
CHARSET_ENCODING "1"
FONTNAME_REGISTRY ""
CHARSET_COLLECTIONS "ISO10646-1"
BITS_PER_PIXEL 2
FONT_NAME "FredokaOne-Regular"
FACE_NAME "Fredoka One"
COPYRIGHT "Copyright (c) 2011 Milena B Brandao (milenabbrandao@gmail.com), with Reserved Font Name "Fredoka""
FONT_VERSION "1.001"
FONT_ASCENT 8
FONT_DESCENT 2
UNDERLINE_POSITION -1
UNDERLINE_THICKNESS 1
X_HEIGHT 5
CAP_HEIGHT 7
RAW_ASCENT 800
RAW_DESCENT 200
NORM_SPACE 3
RELATIVE_WEIGHT 40
RELATIVE_SETWIDTH 50
SUPERSCRIPT_X 0
SUPERSCRIPT_Y 4
SUPERSCRIPT_SIZE 6
SUBSCRIPT_X 0
SUBSCRIPT_Y 1
SUBSCRIPT_SIZE 6
AVG_LOWERCASE_WIDTH 57
AVG_UPPERCASE_WIDTH 68
ENDPROPERTIES
CHARS 235
STARTCHAR space
ENCODING 32
SWIDTH 253 0
DWIDTH 3 0
BBX 1 1 0 0
BITMAP
00
ENDCHAR
STARTCHAR exclam
ENCODING 33
SWIDTH 267 0
DWIDTH 3 0
BBX 3 8 0 0
BITMAP
10
B4
B4
B4
B4
10
60
74
ENDCHAR
STARTCHAR quotedbl
ENCODING 34
SWIDTH 429 0
DWIDTH 4 0
BBX 4 4 0 4
BITMAP
11
AB
A7
66
ENDCHAR
STARTCHAR numbersign
ENCODING 35
SWIDTH 749 0
DWIDTH 7 0
BBX 8 8 0 0
BITMAP
0410
0E34
1E78
7FFD
1C70
BFFC
69E4
2490
ENDCHAR
STARTCHAR dollar
ENCODING 36
SWIDTH 475 0
DWIDTH 5 0
BBX 5 9 0 -1
BITMAP
0800
1D00
7F00
B400
2F00
5740
BF40
1D00
0800
ENDCHAR
STARTCHAR percent
ENCODING 37
SWIDTH 838 0
DWIDTH 8 0
BBX 8 8 0 0
BITMAP
1414
7E24
A660
7EC0
1599
037B
0677
0C2D
ENDCHAR
STARTCHAR ampersand
ENCODING 38
SWIDTH 748 0
DWIDTH 7 0
BBX 8 8 0 0
BITMAP
0A40
2EC0
3AC0
2F40
7E14
BBB8
BBF8
7FBD
ENDCHAR
STARTCHAR quotesingle
ENCODING 39
SWIDTH 208 0
DWIDTH 2 0
BBX 2 4 0 4
BITMAP
10
A0
A0
60
ENDCHAR
STARTCHAR parenleft
ENCODING 40
SWIDTH 384 0
DWIDTH 4 0
BBX 4 10 0 -2
BITMAP
09
2D
74
B0
B0
A0
B0
70
34
1E
ENDCHAR
STARTCHAR parenright
ENCODING 41
SWIDTH 384 0
DWIDTH 4 0
BBX 4 11 0 -3
BITMAP
A0
78
1C
0D
0D
0E
0D
1D
2C
B4
40
ENDCHAR
STARTCHAR asterisk
ENCODING 42
SWIDTH 503 0
DWIDTH 5 0
BBX 5 5 0 3
BITMAP
0400
5D40
BF80
3F40
7B40
ENDCHAR
STARTCHAR plus
ENCODING 43
SWIDTH 527 0
DWIDTH 5 0
BBX 5 5 0 0
BITMAP
0D00
6E40
BFC0
1D00
0900
ENDCHAR
STARTCHAR comma
ENCODING 44
SWIDTH 238 0
DWIDTH 2 0
BBX 2 4 0 -2
BITMAP
A0
B0
60
40
ENDCHAR
STARTCHAR hyphen
ENCODING 45
SWIDTH 433 0
DWIDTH 4 0
BBX 4 2 0 1
BITMAP
BF
6A
ENDCHAR
STARTCHAR period
ENCODING 46
SWIDTH 237 0
DWIDTH 2 0
BBX 2 2 0 0
BITMAP
A0
B0
ENDCHAR
STARTCHAR slash
ENCODING 47
SWIDTH 526 0
DWIDTH 5 0
BBX 5 9 0 -1
BITMAP
0180
03C0
0740
0F00
1D00
2C00
7800
B000
5000
ENDCHAR
STARTCHAR zero
ENCODING 48
SWIDTH 608 0
DWIDTH 6 0
BBX 6 8 0 0
BITMAP
0500
3FC0
7AE0
B0E0
B0E0
B4E0
7ED0
2F80
ENDCHAR
STARTCHAR one
ENCODING 49
SWIDTH 407 0
DWIDTH 4 0
BBX 4 8 0 0
BITMAP
04
1E
BE
BE
0E
0E
0E
0E
ENDCHAR
STARTCHAR two
ENCODING 50
SWIDTH 609 0
DWIDTH 6 0
BBX 6 8 0 0
BITMAP
0500
3FC0
BAD0
B1E0
07D0
2F40
BFA0
BFE0
ENDCHAR
STARTCHAR three
ENCODING 51
SWIDTH 608 0
DWIDTH 6 0
BBX 6 8 0 0
BITMAP
0500
3FC0
79E0
07D0
0BD0
60E0
BAE0
2F80
ENDCHAR
STARTCHAR four
ENCODING 52
SWIDTH 592 0
DWIDTH 6 0
BBX 6 8 0 0
BITMAP
1040
39E0
79E0
B5E0
BAE0
BFE0
01E0
01D0
ENDCHAR
STARTCHAR five
ENCODING 53
SWIDTH 530 0
DWIDTH 5 0
BBX 5 8 0 0
BITMAP
1540
7FC0
7940
BE00
BF80
13C0
BBC0
7F40
ENDCHAR
STARTCHAR six
ENCODING 54
SWIDTH 560 0
DWIDTH 6 0
BBX 6 8 0 0
BITMAP
0140
1FC0
3E40
7900
BF80
B6D0
7AD0
2F40
ENDCHAR
STARTCHAR seven
ENCODING 55
SWIDTH 561 0
DWIDTH 6 0
BBX 6 8 0 0
BITMAP
5540
BFD0
57D0
0780
0F00
1E00
2C00
2C00
ENDCHAR
STARTCHAR eight
ENCODING 56
SWIDTH 582 0
DWIDTH 6 0
BBX 6 8 0 0
BITMAP
0500
3F80
7AD0
7FC0
7FC0
B5D0
BAD0
2F80
ENDCHAR
STARTCHAR nine
ENCODING 57
SWIDTH 560 0
DWIDTH 6 0
BBX 6 8 0 0
BITMAP
0500
7F80
B6D0
BBD0
2FD0
03C0
6F40
7D00
ENDCHAR
STARTCHAR colon
ENCODING 58
SWIDTH 238 0
DWIDTH 2 0
BBX 2 5 0 0
BITMAP
B0
60
00
A0
B0
ENDCHAR
STARTCHAR semicolon
ENCODING 59
SWIDTH 237 0
DWIDTH 2 0
BBX 2 7 0 -2
BITMAP
B0
60
00
A0
B0
60
40
ENDCHAR
STARTCHAR less
ENCODING 60
SWIDTH 627 0
DWIDTH 6 0
BBX 6 7 0 0
BITMAP
0060
07E0
2F40
BC00
6F40
07E0
00A0
ENDCHAR
STARTCHAR equal
ENCODING 61
SWIDTH 478 0
DWIDTH 5 0
BBX 5 4 0 0
BITMAP
BF40
5540
BF40
6A40
ENDCHAR
STARTCHAR greater
ENCODING 62
SWIDTH 627 0
DWIDTH 6 0
BBX 6 7 0 0
BITMAP
6000
BD00
1BD0
02F0
0BD0
7E00
A400
ENDCHAR
STARTCHAR question
ENCODING 63
SWIDTH 512 0
DWIDTH 5 0
BBX 5 8 0 0
BITMAP
1500
7F40
A380
0780
1E00
0400
1900
1D00
ENDCHAR
STARTCHAR at
ENCODING 64
SWIDTH 908 0
DWIDTH 9 0
BBX 9 9 0 -2
BITMAP
06A400
2EAE00
76A740
A7B680
AA7180
A7F280
743F00
1F9400
010000
ENDCHAR
STARTCHAR A
ENCODING 65
SWIDTH 765 0
DWIDTH 8 0
BBX 8 8 0 0
BITMAP
0100
0380
0BD0
0FE0
2DB4
3FF8
B96D
B01D
ENDCHAR
STARTCHAR B
ENCODING 66
SWIDTH 646 0
DWIDTH 6 0
BBX 6 8 0 0
BITMAP
1540
BFD0
B9F0
B5F0
B6F0
B4B0
BAF0
7FD0
ENDCHAR
STARTCHAR C
ENCODING 67
SWIDTH 679 0
DWIDTH 7 0
BBX 7 8 0 0
BITMAP
0140
1FF4
7D64
B400
B000
B400
3EB4
0BE0
ENDCHAR
STARTCHAR D
ENCODING 68
SWIDTH 704 0
DWIDTH 7 0
BBX 7 8 0 0
BITMAP
1500
BFD0
BAF4
B478
B438
B478
BBF0
7F80
ENDCHAR
STARTCHAR E
ENCODING 69
SWIDTH 638 0
DWIDTH 6 0
BBX 6 8 0 0
BITMAP
1550
BFF0
B950
BA40
BFC0
B500
BAA0
7FF0
ENDCHAR
STARTCHAR F
ENCODING 70
SWIDTH 637 0
DWIDTH 6 0
BBX 6 8 0 0
BITMAP
1550
BFF0
B950
BA40
BFC0
B500
B400
7000
ENDCHAR
STARTCHAR G
ENCODING 71
SWIDTH 714 0
DWIDTH 7 0
BBX 7 8 0 0
BITMAP
0140
1FF4
7D60
B454
B1F8
B438
3EB8
0BE4
ENDCHAR
STARTCHAR H
ENCODING 72
SWIDTH 699 0
DWIDTH 7 0
BBX 7 8 0 0
BITMAP
1010
B078
B478
B9B8
BFF8
B478
B478
7034
ENDCHAR
STARTCHAR I
ENCODING 73
SWIDTH 257 0
DWIDTH 3 0
BBX 3 8 0 0
BITMAP
10
B0
B4
B4
B4
B4
B4
70
ENDCHAR
STARTCHAR J
ENCODING 74
SWIDTH 549 0
DWIDTH 5 0
BBX 5 8 0 0
BITMAP
0040
02C0
02C0
02C0
02C0
12C0
BB80
7E00
ENDCHAR
STARTCHAR K
ENCODING 75
SWIDTH 639 0
DWIDTH 6 0
BBX 6 8 0 0
BITMAP
1050
B0F0
B7D0
BF40
BE00
BB80
B6E0
70A0
ENDCHAR
STARTCHAR L
ENCODING 76
SWIDTH 587 0
DWIDTH 6 0
BBX 6 8 0 0
BITMAP
1000
B000
B400
B400
B400
B400
B950
7FE0
ENDCHAR
STARTCHAR M
ENCODING 77
SWIDTH 870 0
DWIDTH 9 0
BBX 9 8 0 0
BITMAP
100100
B40B40
BD2F40
BF7F40
B7FB40
B2D740
B00740
700740
ENDCHAR
STARTCHAR N
ENCODING 78
SWIDTH 720 0
DWIDTH 7 0
BBX 7 8 0 0
BITMAP
1010
B438
BD38
BF38
B7B8
B2F8
B0B8
7038
ENDCHAR
STARTCHAR O
ENCODING 79
SWIDTH 775 0
DWIDTH 8 0
BBX 8 8 0 0
BITMAP
0140
1FF4
7DBC
B41D
B01D
B42D
3EB8
1BE0
ENDCHAR
STARTCHAR P
ENCODING 80
SWIDTH 632 0
DWIDTH 6 0
BBX 6 8 0 0
BITMAP
1500
BFD0
BAF0
B4B0
BBE0
BF80
B400
7000
ENDCHAR
STARTCHAR Q
ENCODING 81
SWIDTH 830 0
DWIDTH 8 0
BBX 8 8 0 0
BITMAP
0140
1FF4
7DBC
B41D
B01D
B42D
3EBE
1BEB
ENDCHAR
STARTCHAR R
ENCODING 82
SWIDTH 631 0
DWIDTH 6 0
BBX 6 8 0 0
BITMAP
1500
BFD0
BAF0
B4B0
BBE0
BFD0
B4F0
70B0
ENDCHAR
STARTCHAR S
ENCODING 83
SWIDTH 583 0
DWIDTH 6 0
BBX 6 8 0 0
BITMAP
0500
7FC0
B580
7900
2FD0
11E0
BAD0
2F80
ENDCHAR
STARTCHAR T
ENCODING 84
SWIDTH 731 0
DWIDTH 7 0
BBX 7 8 0 0
BITMAP
5554
BFFC
0780
0780
0780
0780
0780
0340
ENDCHAR
STARTCHAR U
ENCODING 85
SWIDTH 726 0
DWIDTH 7 0
BBX 7 8 0 0
BITMAP
1014
B03C
B43C
B43C
B43C
7438
3EF4
1FD0
ENDCHAR
STARTCHAR V
ENCODING 86
SWIDTH 783 0
DWIDTH 8 0
BBX 8 8 0 0
BITMAP
1004
B01E
782D
3C38
1DB4
0FE0
07D0
0280
ENDCHAR
STARTCHAR W
ENCODING 87
SWIDTH 999 0
DWIDTH 10 0
BBX 10 8 0 0
BITMAP
100040
B0F0E0
B5F5D0
3AFAC0
2FBF80
1F6F40
0F1F00
0A0A00
ENDCHAR
STARTCHAR X
ENCODING 88
SWIDTH 741 0
DWIDTH 7 0
BBX 7 8 0 0
BITMAP
1004
B43C
7DB8
1FE0
0BD0
2EF0
787C
B02C
ENDCHAR
STARTCHAR Y
ENCODING 89
SWIDTH 686 0
DWIDTH 7 0
BBX 7 8 0 0
BITMAP
1010
B478
78F4
2ED0
0F80
0740
0740
0740
ENDCHAR
STARTCHAR Z
ENCODING 90
SWIDTH 643 0
DWIDTH 6 0
BBX 6 8 0 0
BITMAP
1550
BFF0
57E0
0780
0F00
2D00
7EA0
BFF0
ENDCHAR
STARTCHAR bracketleft
ENCODING 91
SWIDTH 348 0
DWIDTH 3 0
BBX 4 11 0 -3
BITMAP
69
B9
B0
B0
B0
B0
B0
B0
B4
BD
14
ENDCHAR
STARTCHAR backslash
ENCODING 92
SWIDTH 528 0
DWIDTH 5 0
BBX 5 9 0 -1
BITMAP
6000
B400
7800
2C00
1E00
0B00
0780
02C0
0140
ENDCHAR
STARTCHAR bracketright
ENCODING 93
SWIDTH 348 0
DWIDTH 3 0
BBX 3 11 0 -3
BITMAP
A8
BC
2C
2C
2C
2C
2C
2C
2C
BC
14
ENDCHAR
STARTCHAR asciicircum
ENCODING 94
SWIDTH 526 0
DWIDTH 5 0
BBX 5 4 0 2
BITMAP
0400
2E00
7B80
1140
ENDCHAR
STARTCHAR underscore
ENCODING 95
SWIDTH 826 0
DWIDTH 8 0
BBX 8 2 0 -3
BITMAP
BFFF
5555
ENDCHAR
STARTCHAR grave
ENCODING 96
SWIDTH 482 0
DWIDTH 5 0
BBX 3 2 1 6
BITMAP
90
BC
ENDCHAR
STARTCHAR a
ENCODING 97
SWIDTH 596 0
DWIDTH 6 0
BBX 6 6 0 0
BITMAP
0440
2FE0
BAE0
B1E0
7FE0
2ED0
ENDCHAR
STARTCHAR b
ENCODING 98
SWIDTH 592 0
DWIDTH 6 0
BBX 6 8 0 0
BITMAP
6000
B000
B500
BF80
BAD0
B5E0
BFD0
7B80
ENDCHAR
STARTCHAR c
ENCODING 99
SWIDTH 517 0
DWIDTH 5 0
BBX 5 6 0 0
BITMAP
0500
2F80
BA40
B000
7F80
2F40
ENDCHAR
STARTCHAR d
ENCODING 100
SWIDTH 598 0
DWIDTH 6 0
BBX 6 8 0 0
BITMAP
0090
01E0
05E0
2FE0
BAE0
B1E0
7FE0
2ED0
ENDCHAR
STARTCHAR e
ENCODING 101
SWIDTH 573 0
DWIDTH 6 0
BBX 6 6 0 0
BITMAP
0500
3FC0
BAD0
BFD0
7980
2FC0
ENDCHAR
STARTCHAR f
ENCODING 102
SWIDTH 450 0
DWIDTH 5 0
BBX 5 8 0 0
BITMAP
0A00
2F00
3D00
BF40
7D00
3800
3800
3800
ENDCHAR
STARTCHAR g
ENCODING 103
SWIDTH 585 0
DWIDTH 6 0
BBX 6 9 0 -3
BITMAP
0440
3FD0
BAD0
B1D0
7FD0
1AD0
26D0
3F80
0400
ENDCHAR
STARTCHAR h
ENCODING 104
SWIDTH 605 0
DWIDTH 6 0
BBX 6 8 0 0
BITMAP
6000
B000
B500
BF80
BAD0
B0E0
B0E0
70E0
ENDCHAR
STARTCHAR i
ENCODING 105
SWIDTH 255 0
DWIDTH 3 0
BBX 2 8 0 0
BITMAP
60
B0
10
B0
B0
B0
B0
70
ENDCHAR
STARTCHAR j
ENCODING 106
SWIDTH 252 0
DWIDTH 3 0
BBX 4 11 -2 -3
BITMAP
06
07
01
0B
0B
0B
0B
0B
1F
7D
10
ENDCHAR
STARTCHAR k
ENCODING 107
SWIDTH 536 0
DWIDTH 5 0
BBX 5 8 0 0
BITMAP
6000
B000
B000
B780
BF40
BE00
BB80
72C0
ENDCHAR
STARTCHAR l
ENCODING 108
SWIDTH 327 0
DWIDTH 3 0
BBX 3 8 0 0
BITMAP
60
B0
B0
B0
B0
B0
B8
7C
ENDCHAR
STARTCHAR m
ENCODING 109
SWIDTH 851 0
DWIDTH 9 0
BBX 8 6 0 0
BITMAP
1104
BFBE
BBEF
B6CB
B2CB
72CB
ENDCHAR
STARTCHAR n
ENCODING 110
SWIDTH 606 0
DWIDTH 6 0
BBX 6 6 0 0
BITMAP
1100
BF80
BAD0
B4E0
B0E0
70E0
ENDCHAR
STARTCHAR o
ENCODING 111
SWIDTH 600 0
DWIDTH 6 0
BBX 6 6 0 0
BITMAP
0500
3FC0
BAE0
B0E0
7FD0
2F80
ENDCHAR
STARTCHAR p
ENCODING 112
SWIDTH 582 0
DWIDTH 6 0
BBX 6 9 0 -3
BITMAP
1100
BF80
BAD0
B5E0
BFD0
BA40
B000
B000
1000
ENDCHAR
STARTCHAR q
ENCODING 113
SWIDTH 582 0
DWIDTH 6 0
BBX 6 9 0 -3
BITMAP
0440
3FD0
BAD0
B1D0
7FD0
1AD0
01D0
01D0
0040
ENDCHAR
STARTCHAR r
ENCODING 114
SWIDTH 457 0
DWIDTH 5 0
BBX 5 6 0 0
BITMAP
1100
BF40
B900
B000
B000
7000
ENDCHAR
STARTCHAR s
ENCODING 115
SWIDTH 489 0
DWIDTH 5 0
BBX 5 6 0 0
BITMAP
1500
7F40
7900
3F40
6B80
7F40
ENDCHAR
STARTCHAR t
ENCODING 116
SWIDTH 449 0
DWIDTH 4 0
BBX 5 7 0 0
BITMAP
3800
3D00
BF40
7D00
3800
3E00
1F00
ENDCHAR
STARTCHAR u
ENCODING 117
SWIDTH 606 0
DWIDTH 6 0
BBX 6 6 0 0
BITMAP
1040
B0E0
B0E0
B5E0
7FE0
2EE0
ENDCHAR
STARTCHAR v
ENCODING 118
SWIDTH 638 0
DWIDTH 6 0
BBX 6 6 0 0
BITMAP
1010
B0B0
79E0
2ED0
1F80
0B00
ENDCHAR
STARTCHAR w
ENCODING 119
SWIDTH 793 0
DWIDTH 8 0
BBX 8 6 0 0
BITMAP
1004
B3CE
7BED
3FFC
2EB8
1D70
ENDCHAR
STARTCHAR x
ENCODING 120
SWIDTH 567 0
DWIDTH 6 0
BBX 6 6 0 0
BITMAP
0040
B6D0
7F80
2F40
7FD0
A1D0
ENDCHAR
STARTCHAR y
ENCODING 121
SWIDTH 604 0
DWIDTH 6 0
BBX 6 9 0 -3
BITMAP
1040
B0E0
79D0
2FC0
0F80
0B00
1E00
2D00
0400
ENDCHAR
STARTCHAR z
ENCODING 122
SWIDTH 586 0
DWIDTH 6 0
BBX 6 6 0 0
BITMAP
1540
7FD0
1B80
1E00
7E90
BFD0
ENDCHAR
STARTCHAR braceleft
ENCODING 123
SWIDTH 381 0
DWIDTH 4 0
BBX 4 10 0 -2
BITMAP
09
2D
28
28
78
B4
28
28
28
1E
ENDCHAR
STARTCHAR bar
ENCODING 124
SWIDTH 217 0
DWIDTH 2 0
BBX 2 11 0 -3
BITMAP
50
A0
A0
A0
A0
A0
A0
A0
A0
A0
10
ENDCHAR
STARTCHAR braceright
ENCODING 125
SWIDTH 381 0
DWIDTH 4 0
BBX 4 10 0 -2
BITMAP
A0
B4
38
38
29
2E
38
34
34
B4
ENDCHAR
STARTCHAR asciitilde
ENCODING 126
SWIDTH 651 0
DWIDTH 7 0
BBX 6 3 0 1
BITMAP
2990
7FD0
1140
ENDCHAR
STARTCHAR exclamdown
ENCODING 161
SWIDTH 268 0
DWIDTH 3 0
BBX 3 8 0 -3
BITMAP
B4
60
10
B4
B4
B4
B4
10
ENDCHAR
STARTCHAR cent
ENCODING 162
SWIDTH 434 0
DWIDTH 4 0
BBX 4 8 0 -1
BITMAP
08
0C
2E
B6
B5
7F
1C
08
ENDCHAR
STARTCHAR sterling
ENCODING 163
SWIDTH 675 0
DWIDTH 7 0
BBX 7 8 0 0
BITMAP
0140
1FF0
2D64
3900
BF40
2C00
3EA4
3FF4
ENDCHAR
STARTCHAR currency
ENCODING 164
SWIDTH 677 0
DWIDTH 7 0
BBX 7 8 0 0
BITMAP
5014
7AB4
3EF0
7074
7074
79B0
7FF0
A024
ENDCHAR
STARTCHAR yen
ENCODING 165
SWIDTH 677 0
DWIDTH 7 0
BBX 7 8 0 0
BITMAP
1010
B078
78F0
2ED0
2FD0
1B90
2FE0
0740
ENDCHAR
STARTCHAR brokenbar
ENCODING 166
SWIDTH 215 0
DWIDTH 2 0
BBX 2 10 0 -2
BITMAP
50
A0
A0
A0
60
00
A0
A0
A0
A0
ENDCHAR
STARTCHAR section
ENCODING 167
SWIDTH 560 0
DWIDTH 6 0
BBX 6 11 0 -3
BITMAP
1A40
7F80
B540
7E40
7BD0
B6D0
3FC0
06D0
B6D0
7F80
0400
ENDCHAR
STARTCHAR dieresis
ENCODING 168
SWIDTH 489 0
DWIDTH 5 0
BBX 5 2 0 6
BITMAP
6280
B280
ENDCHAR
STARTCHAR copyright
ENCODING 169
SWIDTH 711 0
DWIDTH 7 0
BBX 7 7 0 1
BITMAP
0540
2AB0
9B98
9808
9D48
6664
1FE0
ENDCHAR
STARTCHAR ordfeminine
ENCODING 170
SWIDTH 445 0
DWIDTH 4 0
BBX 4 4 0 3
BITMAP
7F
A7
BB
16
ENDCHAR
STARTCHAR guillemotleft
ENCODING 171
SWIDTH 668 0
DWIDTH 7 0
BBX 7 5 0 0
BITMAP
1D74
79E0
B6D0
3DF0
0D34
ENDCHAR
STARTCHAR logicalnot
ENCODING 172
SWIDTH 526 0
DWIDTH 5 0
BBX 5 4 0 1
BITMAP
5540
BFC0
55C0
0080
ENDCHAR
STARTCHAR registered
ENCODING 174
SWIDTH 711 0
DWIDTH 7 0
BBX 7 7 0 1
BITMAP
0540
2AB0
9BD8
9AC8
9AC8
64A4
1FE0
ENDCHAR
STARTCHAR degree
ENCODING 176
SWIDTH 407 0
DWIDTH 4 0
BBX 4 4 0 4
BITMAP
28
AA
AA
69
ENDCHAR
STARTCHAR plusminus
ENCODING 177
SWIDTH 505 0
DWIDTH 5 0
BBX 5 6 0 0
BITMAP
0400
1D40
BF80
1D00
1940
BF80
ENDCHAR
STARTCHAR twosuperior
ENCODING 178
SWIDTH 455 0
DWIDTH 5 0
BBX 5 6 0 2
BITMAP
1400
7F00
A700
1E00
7E40
7F40
ENDCHAR
STARTCHAR threesuperior
ENCODING 179
SWIDTH 457 0
DWIDTH 5 0
BBX 5 6 0 2
BITMAP
1400
7F00
1B00
1B00
BB40
2E00
ENDCHAR
STARTCHAR acute
ENCODING 180
SWIDTH 605 0
DWIDTH 6 0
BBX 4 3 1 5
BITMAP
19
7D
10
ENDCHAR
STARTCHAR mu
ENCODING 181
SWIDTH 601 0
DWIDTH 6 0
BBX 6 8 0 -2
BITMAP
1040
B0E0
B0E0
B5E0
BFE0
BED0
B000
B000
ENDCHAR
STARTCHAR paragraph
ENCODING 182
SWIDTH 614 0
DWIDTH 6 0
BBX 6 9 0 -3
BITMAP
7FE0
BDA0
BDA0
1DA0
0DA0
0DA0
0DA0
0DA0
0440
ENDCHAR
STARTCHAR periodcentered
ENCODING 183
SWIDTH 237 0
DWIDTH 2 0
BBX 2 2 0 2
BITMAP
B0
A0
ENDCHAR
STARTCHAR cedilla
ENCODING 184
SWIDTH 559 0
DWIDTH 6 0
BBX 2 3 2 -2
BITMAP
40
A0
D0
ENDCHAR
STARTCHAR onesuperior
ENCODING 185
SWIDTH 321 0
DWIDTH 3 0
BBX 3 6 0 2
BITMAP
04
78
B8
28
28
18
ENDCHAR
STARTCHAR ordmasculine
ENCODING 186
SWIDTH 439 0
DWIDTH 4 0
BBX 4 4 0 3
BITMAP
7D
A7
BB
29
ENDCHAR
STARTCHAR guillemotright
ENCODING 187
SWIDTH 669 0
DWIDTH 7 0
BBX 7 5 0 0
BITMAP
B2C0
7DF0
2DB4
79E0
A280
ENDCHAR
STARTCHAR onequarter
ENCODING 188
SWIDTH 786 0
DWIDTH 8 0
BBX 8 8 0 0
BITMAP
1420
7860
28C0
2A40
176D
09AD
08AD
2409
ENDCHAR
STARTCHAR onehalf
ENCODING 189
SWIDTH 804 0
DWIDTH 8 0
BBX 8 8 0 0
BITMAP
1420
7860
28C0
2A50
17BC
099D
0878
24BD
ENDCHAR
STARTCHAR threequarters
ENCODING 190
SWIDTH 842 0
DWIDTH 8 0
BBX 8 8 0 0
BITMAP
2814
6A30
1D60
7AD0
1A7A
037A
096E
0C06
ENDCHAR
STARTCHAR questiondown
ENCODING 191
SWIDTH 511 0
DWIDTH 5 0
BBX 5 9 0 -3
BITMAP
0400
1E00
0900
0900
3D00
B440
B7C0
3F40
0400
ENDCHAR
STARTCHAR Agrave
ENCODING 192
SWIDTH 765 0
DWIDTH 8 0
BBX 8 10 0 0
BITMAP
0500
0BC0
0140
0380
0BD0
0FE0
2DB4
3FF8
B96D
B01D
ENDCHAR
STARTCHAR Aacute
ENCODING 193
SWIDTH 765 0
DWIDTH 8 0
BBX 8 10 0 0
BITMAP
0190
07D0
0100
0380
0BD0
0FE0
2DB4
3FF8
B96D
B01D
ENDCHAR
STARTCHAR Acircumflex
ENCODING 194
SWIDTH 765 0
DWIDTH 8 0
BBX 8 10 0 0
BITMAP
0690
0FE0
0100
0380
0BD0
0FE0
2DB4
3FF8
B96D
B01D
ENDCHAR
STARTCHAR Atilde
ENCODING 195
SWIDTH 765 0
DWIDTH 8 0
BBX 8 10 0 0
BITMAP
0650
0ED0
0100
0380
0BD0
0FE0
2DB4
3FF8
B96D
B01D
ENDCHAR
STARTCHAR Adieresis
ENCODING 196
SWIDTH 765 0
DWIDTH 8 0
BBX 8 10 0 0
BITMAP
1960
1DB0
0100
0380
0BD0
0FE0
2DB4
3FF8
B96D
B01D
ENDCHAR
STARTCHAR Aring
ENCODING 197
SWIDTH 765 0
DWIDTH 8 0
BBX 8 9 0 0
BITMAP
0680
0680
0380
0BD0
0FE0
2DB4
3FF8
B96D
B01D
ENDCHAR
STARTCHAR AE
ENCODING 198
SWIDTH 1148 0
DWIDTH 11 0
BBX 12 8 0 0
BITMAP
000554
007FFD
00FE54
03FE90
0B9FF0
2FFD40
BAAFA8
A01FFC
ENDCHAR
STARTCHAR Ccedilla
ENCODING 199
SWIDTH 679 0
DWIDTH 7 0
BBX 7 10 0 -2
BITMAP
0140
1FF4
7D64
B400
B000
B400
3EB4
0BE0
0280
0280
ENDCHAR
STARTCHAR Egrave
ENCODING 200
SWIDTH 638 0
DWIDTH 6 0
BBX 6 10 0 0
BITMAP
0500
0F80
1690
BFF0
B950
BA40
BFC0
B500
BAA0
7FF0
ENDCHAR
STARTCHAR Eacute
ENCODING 201
SWIDTH 638 0
DWIDTH 6 0
BBX 6 10 0 0
BITMAP
0180
0F80
1950
BFF0
B950
BA40
BFC0
B500
BAA0
7FF0
ENDCHAR
STARTCHAR Ecircumflex
ENCODING 202
SWIDTH 638 0
DWIDTH 6 0
BBX 6 10 0 0
BITMAP
0A40
2EC0
1550
BFF0
B950
BA40
BFC0
B500
BAA0
7FF0
ENDCHAR
STARTCHAR Edieresis
ENCODING 203
SWIDTH 638 0
DWIDTH 6 0
BBX 6 10 0 0
BITMAP
2890
39D0
1550
BFF0
B950
BA40
BFC0
B500
BAA0
7FF0
ENDCHAR
STARTCHAR Igrave
ENCODING 204
SWIDTH 267 0
DWIDTH 3 0
BBX 4 10 -1 0
BITMAP
14
7D
08
2D
2D
2D
2D
2D
2D
1C
ENDCHAR
STARTCHAR Iacute
ENCODING 205
SWIDTH 269 0
DWIDTH 3 0
BBX 3 10 0 0
BITMAP
18
B8
50
B4
B4
B4
B4
B4
B4
70
ENDCHAR
STARTCHAR Icircumflex
ENCODING 206
SWIDTH 270 0
DWIDTH 3 0
BBX 5 10 -1 0
BITMAP
1900
BB40
0400
2D00
2D00
2D00
2D00
2D00
2D00
1C00
ENDCHAR
STARTCHAR Idieresis
ENCODING 207
SWIDTH 268 0
DWIDTH 3 0
BBX 5 10 -1 0
BITMAP
A240
B380
0400
2D00
2D00
2D00
2D00
2D00
2D00
1D00
ENDCHAR
STARTCHAR Eth
ENCODING 208
SWIDTH 775 0
DWIDTH 8 0
BBX 8 8 0 0
BITMAP
1540
3FF4
3DBC
7D2D
BE1D
3C2D
3EF8
2FE0
ENDCHAR
STARTCHAR Ntilde
ENCODING 209
SWIDTH 720 0
DWIDTH 7 0
BBX 7 10 0 0
BITMAP
0A50
1ED0
1010
B438
BD38
BF38
B7B8
B2F8
B0B8
7038
ENDCHAR
STARTCHAR Ograve
ENCODING 210
SWIDTH 775 0
DWIDTH 8 0
BBX 8 10 0 0
BITMAP
0500
0BC0
0280
1FF4
7DBC
B41D
B01D
B42D
3EB8
1BE0
ENDCHAR
STARTCHAR Oacute
ENCODING 211
SWIDTH 775 0
DWIDTH 8 0
BBX 8 10 0 0
BITMAP
0190
07D0
0240
1FF4
7DBC
B41D
B01D
B42D
3EB8
1BE0
ENDCHAR
STARTCHAR Ocircumflex
ENCODING 212
SWIDTH 775 0
DWIDTH 8 0
BBX 8 10 0 0
BITMAP
0690
0FE0
0540
1FF4
7DBC
B41D
B01D
B42D
3EB8
1BE0
ENDCHAR
STARTCHAR Otilde
ENCODING 213
SWIDTH 775 0
DWIDTH 8 0
BBX 8 10 0 0
BITMAP
0660
0AE0
0140
1FF4
7DBC
B41D
B01D
B42D
3EB8
1BE0
ENDCHAR
STARTCHAR Odieresis
ENCODING 214
SWIDTH 775 0
DWIDTH 8 0
BBX 8 10 0 0
BITMAP
1960
1DB0
0140
1FF4
7DBC
B41D
B01D
B42D
3EB8
1BE0
ENDCHAR
STARTCHAR multiply
ENCODING 215
SWIDTH 521 0
DWIDTH 5 0
BBX 5 5 0 0
BITMAP
6280
7F80
2F00
BB80
5140
ENDCHAR
STARTCHAR Oslash
ENCODING 216
SWIDTH 775 0
DWIDTH 8 0
BBX 8 9 0 -1
BITMAP
0164
1FF4
7EFC
B6ED
B39D
BB6D
3FB8
1FE0
0400
ENDCHAR
STARTCHAR Ugrave
ENCODING 217
SWIDTH 726 0
DWIDTH 7 0
BBX 7 10 0 0
BITMAP
0900
1F40
1114
B03C
B43C
B43C
B43C
7438
3EF4
1FD0
ENDCHAR
STARTCHAR Uacute
ENCODING 218
SWIDTH 726 0
DWIDTH 7 0
BBX 7 10 0 0
BITMAP
0190
07D0
1114
B03C
B43C
B43C
B43C
7438
3EF4
1FD0
ENDCHAR
STARTCHAR Ucircumflex
ENCODING 219
SWIDTH 726 0
DWIDTH 7 0
BBX 7 10 0 0
BITMAP
0680
0EE0
1014
B03C
B43C
B43C
B43C
7438
3EF4
1FD0
ENDCHAR
STARTCHAR Udieresis
ENCODING 220
SWIDTH 726 0
DWIDTH 7 0
BBX 7 10 0 0
BITMAP
18A0
2CE0
1014
B03C
B43C
B43C
B43C
7438
3EF4
1FD0
ENDCHAR
STARTCHAR Yacute
ENCODING 221
SWIDTH 686 0
DWIDTH 7 0
BBX 7 10 0 0
BITMAP
0180
0B80
1010
B478
78F4
2ED0
0F80
0740
0740
0740
ENDCHAR
STARTCHAR Thorn
ENCODING 222
SWIDTH 634 0
DWIDTH 6 0
BBX 6 8 0 0
BITMAP
1000
B500
BFD0
BAF0
B4B0
BBE0
BF80
7000
ENDCHAR
STARTCHAR germandbls
ENCODING 223
SWIDTH 633 0
DWIDTH 6 0
BBX 6 9 0 -1
BITMAP
1540
7FC0
B6C0
B780
B7D0
B1F0
B6B0
B7E0
1000
ENDCHAR
STARTCHAR agrave
ENCODING 224
SWIDTH 596 0
DWIDTH 6 0
BBX 6 8 0 0
BITMAP
0900
1F80
0540
2FE0
BAE0
B1E0
7FE0
2ED0
ENDCHAR
STARTCHAR aacute
ENCODING 225
SWIDTH 596 0
DWIDTH 6 0
BBX 6 8 0 0
BITMAP
0640
0F40
0440
2FE0
BAE0
B1E0
7FE0
2ED0
ENDCHAR
STARTCHAR acircumflex
ENCODING 226
SWIDTH 596 0
DWIDTH 6 0
BBX 6 8 0 0
BITMAP
0A40
2EC0
0440
2FE0
BAE0
B1E0
7FE0
2ED0
ENDCHAR
STARTCHAR atilde
ENCODING 227
SWIDTH 596 0
DWIDTH 6 0
BBX 6 8 0 0
BITMAP
1980
2BC0
0440
2FE0
BAE0
B1E0
7FE0
2ED0
ENDCHAR
STARTCHAR adieresis
ENCODING 228
SWIDTH 596 0
DWIDTH 6 0
BBX 6 8 0 0
BITMAP
2490
39D0
0440
2FE0
BAE0
B1E0
7FE0
2ED0
ENDCHAR
STARTCHAR aring
ENCODING 229
SWIDTH 596 0
DWIDTH 6 0
BBX 6 8 0 0
BITMAP
0100
0940
0540
2FE0
BAE0
B1E0
7FE0
2ED0
ENDCHAR
STARTCHAR ae
ENCODING 230
SWIDTH 910 0
DWIDTH 9 0
BBX 9 6 0 0
BITMAP
050400
7FBF40
76E780
6AFF80
B6F640
7E7F40
ENDCHAR
STARTCHAR ccedilla
ENCODING 231
SWIDTH 524 0
DWIDTH 5 0
BBX 5 8 0 -2
BITMAP
0500
3F80
BA80
B000
7F80
2F80
0B00
0A00
ENDCHAR
STARTCHAR egrave
ENCODING 232
SWIDTH 573 0
DWIDTH 6 0
BBX 6 8 0 0
BITMAP
1900
1F40
0600
3FC0
BAD0
BFD0
7980
2FC0
ENDCHAR
STARTCHAR eacute
ENCODING 233
SWIDTH 573 0
DWIDTH 6 0
BBX 6 8 0 0
BITMAP
0640
1F40
0500
3FC0
BAD0
BFD0
7980
2FC0
ENDCHAR
STARTCHAR ecircumflex
ENCODING 234
SWIDTH 573 0
DWIDTH 6 0
BBX 6 8 0 0
BITMAP
1A40
3FC0
0500
3FC0
BAD0
BFD0
7980
2FC0
ENDCHAR
STARTCHAR edieresis
ENCODING 235
SWIDTH 573 0
DWIDTH 6 0
BBX 6 8 0 0
BITMAP
2580
76C0
0500
3FC0
BAD0
BFD0
7980
2FC0
ENDCHAR
STARTCHAR igrave
ENCODING 236
SWIDTH 255 0
DWIDTH 3 0
BBX 4 8 -1 0
BITMAP
64
7D
04
2C
2C
2C
2C
1C
ENDCHAR
STARTCHAR iacute
ENCODING 237
SWIDTH 255 0
DWIDTH 3 0
BBX 3 8 0 0
BITMAP
18
B8
50
B0
B0
B0
B0
70
ENDCHAR
STARTCHAR icircumflex
ENCODING 238
SWIDTH 255 0
DWIDTH 3 0
BBX 5 8 -1 0
BITMAP
2900
BB40
0400
2C00
2C00
2C00
2C00
1C00
ENDCHAR
STARTCHAR idieresis
ENCODING 239
SWIDTH 255 0
DWIDTH 3 0
BBX 5 8 -1 0
BITMAP
9240
E740
0400
2C00
2C00
2C00
2C00
1C00
ENDCHAR
STARTCHAR eth
ENCODING 240
SWIDTH 585 0
DWIDTH 6 0
BBX 6 8 0 0
BITMAP
0A00
1F40
06C0
2FD0
BAE0
B1E0
7BD0
2F40
ENDCHAR
STARTCHAR ntilde
ENCODING 241
SWIDTH 606 0
DWIDTH 6 0
BBX 6 8 0 0
BITMAP
1980
2B80
1100
BF80
BAD0
B4E0
B0E0
70E0
ENDCHAR
STARTCHAR ograve
ENCODING 242
SWIDTH 600 0
DWIDTH 6 0
BBX 6 8 0 0
BITMAP
1900
1F40
0500
3FC0
BAE0
B0E0
7FD0
2F80
ENDCHAR
STARTCHAR oacute
ENCODING 243
SWIDTH 600 0
DWIDTH 6 0
BBX 6 8 0 0
BITMAP
0640
0F40
0900
3FC0
BAE0
B0E0
7FD0
2F80
ENDCHAR
STARTCHAR ocircumflex
ENCODING 244
SWIDTH 600 0
DWIDTH 6 0
BBX 6 8 0 0
BITMAP
1A40
3FC0
0500
3FC0
BAE0
B0E0
7FD0
2F80
ENDCHAR
STARTCHAR otilde
ENCODING 245
SWIDTH 600 0
DWIDTH 6 0
BBX 6 8 0 0
BITMAP
1980
3B80
0500
3FC0
BAE0
B0E0
7FD0
2F80
ENDCHAR
STARTCHAR odieresis
ENCODING 246
SWIDTH 600 0
DWIDTH 6 0
BBX 6 8 0 0
BITMAP
2580
76C0
0500
3FC0
BAE0
B0E0
7FD0
2F80
ENDCHAR
STARTCHAR divide
ENCODING 247
SWIDTH 503 0
DWIDTH 5 0
BBX 5 6 0 0
BITMAP
0400
1D00
5940
BF80
0800
1D00
ENDCHAR
STARTCHAR oslash
ENCODING 248
SWIDTH 600 0
DWIDTH 6 0
BBX 6 9 0 -2
BITMAP
0090
06D0
2FC0
BAE0
B0E0
7FD0
3F80
7400
1000
ENDCHAR
STARTCHAR ugrave
ENCODING 249
SWIDTH 606 0
DWIDTH 6 0
BBX 6 8 0 0
BITMAP
1900
1F40
1140
B0E0
B0E0
B5E0
7FE0
2EE0
ENDCHAR
STARTCHAR uacute
ENCODING 250
SWIDTH 606 0
DWIDTH 6 0
BBX 6 8 0 0
BITMAP
0640
0F80
1440
B0E0
B0E0
B5E0
7FE0
2EE0
ENDCHAR
STARTCHAR ucircumflex
ENCODING 251
SWIDTH 606 0
DWIDTH 6 0
BBX 6 8 0 0
BITMAP
1A40
2FC0
1040
B0E0
B0E0
B5E0
7FE0
2EE0
ENDCHAR
STARTCHAR udieresis
ENCODING 252
SWIDTH 606 0
DWIDTH 6 0
BBX 6 8 0 0
BITMAP
2580
75D0
1040
B0E0
B0E0
B5E0
7FE0
2EE0
ENDCHAR
STARTCHAR yacute
ENCODING 253
SWIDTH 604 0
DWIDTH 6 0
BBX 6 11 0 -3
BITMAP
0640
0F80
1440
B0E0
79D0
2FC0
0F80
0B00
1E00
2D00
0400
ENDCHAR
STARTCHAR thorn
ENCODING 254
SWIDTH 580 0
DWIDTH 6 0
BBX 6 11 0 -3
BITMAP
6000
B000
B100
BF80
BAD0
B1D0
BFD0
BB40
B000
B000
1000
ENDCHAR
STARTCHAR ydieresis
ENCODING 255
SWIDTH 604 0
DWIDTH 6 0
BBX 6 11 0 -3
BITMAP
2590
39D0
1040
B0E0
79D0
2FC0
0F80
0B00
1E00
2D00
0400
ENDCHAR
STARTCHAR dotlessi
ENCODING 305
SWIDTH 255 0
DWIDTH 3 0
BBX 2 6 0 0
BITMAP
10
B0
B0
B0
B0
70
ENDCHAR
STARTCHAR Lslash
ENCODING 321
SWIDTH 687 0
DWIDTH 7 0
BBX 7 8 0 0
BITMAP
0400
2C00
2D00
2F80
BE00
2D00
2E54
1FF8
ENDCHAR
STARTCHAR lslash
ENCODING 322
SWIDTH 468 0
DWIDTH 5 0
BBX 5 8 0 0
BITMAP
1800
2C00
2C00
2F40
BD00
2C00
2E00
1F00
ENDCHAR
STARTCHAR OE
ENCODING 338
SWIDTH 1092 0
DWIDTH 11 0
BBX 11 8 0 0
BITMAP
015550
1FFFF8
7D7D54
B43E90
B03FE0
B43940
3EBEA4
0BFFF8
ENDCHAR
STARTCHAR oe
ENCODING 339
SWIDTH 944 0
DWIDTH 9 0
BBX 9 6 0 0
BITMAP
050500
3FFF80
BAF6C0
B0FF80
7FFA40
2FAF80
ENDCHAR
STARTCHAR Scaron
ENCODING 352
SWIDTH 583 0
DWIDTH 6 0
BBX 6 10 0 0
BITMAP
2640
2F80
0500
7FC0
B580
7900
2FD0
11E0
BAD0
2F80
ENDCHAR
STARTCHAR scaron
ENCODING 353
SWIDTH 489 0
DWIDTH 5 0
BBX 5 8 0 0
BITMAP
6600
7E00
1500
7F40
7900
3F40
6B80
7F40
ENDCHAR
STARTCHAR Ydieresis
ENCODING 376
SWIDTH 686 0
DWIDTH 7 0
BBX 7 10 0 0
BITMAP
1890
2CE0
1010
B478
78F4
2ED0
0F80
0740
0740
0740
ENDCHAR
STARTCHAR Zcaron
ENCODING 381
SWIDTH 643 0
DWIDTH 6 0
BBX 6 10 0 0
BITMAP
1980
1F80
1550
BFF0
57E0
0780
0F00
2D00
7EA0
BFF0
ENDCHAR
STARTCHAR zcaron
ENCODING 382
SWIDTH 586 0
DWIDTH 6 0
BBX 6 8 0 0
BITMAP
2580
2F80
1540
7FD0
1B80
1E00
7E90
BFD0
ENDCHAR
STARTCHAR florin
ENCODING 402
SWIDTH 529 0
DWIDTH 5 0
BBX 5 11 0 -3
BITMAP
0140
07C0
0F40
3FC0
2F80
1D00
1D00
2D00
6C00
F800
4000
ENDCHAR
STARTCHAR circumflex
ENCODING 710
SWIDTH 603 0
DWIDTH 6 0
BBX 4 2 1 6
BITMAP
69
FF
ENDCHAR
STARTCHAR caron
ENCODING 711
SWIDTH 600 0
DWIDTH 6 0
BBX 4 2 1 6
BITMAP
96
BE
ENDCHAR
STARTCHAR dotaccent
ENCODING 729
SWIDTH 285 0
DWIDTH 3 0
BBX 3 2 0 7
BITMAP
64
74
ENDCHAR
STARTCHAR ring
ENCODING 730
SWIDTH 378 0
DWIDTH 4 0
BBX 3 3 0 6
BITMAP
68
68
14
ENDCHAR
STARTCHAR ogonek
ENCODING 731
SWIDTH 570 0
DWIDTH 6 0
BBX 2 3 2 -2
BITMAP
40
D0
90
ENDCHAR
STARTCHAR tilde
ENCODING 732
SWIDTH 584 0
DWIDTH 6 0
BBX 4 2 1 6
BITMAP
65
ED
ENDCHAR
STARTCHAR endash
ENCODING 8211
SWIDTH 561 0
DWIDTH 6 0
BBX 6 2 0 2
BITMAP
6A80
BFD0
ENDCHAR
STARTCHAR emdash
ENCODING 8212
SWIDTH 693 0
DWIDTH 7 0
BBX 7 2 0 2
BITMAP
6AA4
BFF8
ENDCHAR
STARTCHAR quoteleft
ENCODING 8216
SWIDTH 237 0
DWIDTH 2 0
BBX 2 4 0 4
BITMAP
10
60
A0
B0
ENDCHAR
STARTCHAR quoteright
ENCODING 8217
SWIDTH 237 0
DWIDTH 2 0
BBX 2 4 0 4
BITMAP
10
B0
70
A0
ENDCHAR
STARTCHAR quotesinglbase
ENCODING 8218
SWIDTH 237 0
DWIDTH 2 0
BBX 2 4 0 -2
BITMAP
A0
B0
60
40
ENDCHAR
STARTCHAR quotedblleft
ENCODING 8220
SWIDTH 482 0
DWIDTH 5 0
BBX 5 4 0 4
BITMAP
1000
6240
A740
B780
ENDCHAR
STARTCHAR quotedblright
ENCODING 8221
SWIDTH 482 0
DWIDTH 5 0
BBX 5 4 0 4
BITMAP
1100
B780
7340
A200
ENDCHAR
STARTCHAR quotedblbase
ENCODING 8222
SWIDTH 482 0
DWIDTH 5 0
BBX 5 4 0 -2
BITMAP
A640
B780
6240
4100
ENDCHAR
STARTCHAR dagger
ENCODING 8224
SWIDTH 527 0
DWIDTH 5 0
BBX 5 10 0 -2
BITMAP
0400
1D00
1E00
BFC0
6E40
1E00
1E00
1E00
1E00
0D00
ENDCHAR
STARTCHAR daggerdbl
ENCODING 8225
SWIDTH 527 0
DWIDTH 5 0
BBX 5 10 0 -2
BITMAP
0400
1D00
1E00
BFC0
6E40
1E00
BFC0
6E40
1E00
0D00
ENDCHAR
STARTCHAR bullet
ENCODING 8226
SWIDTH 342 0
DWIDTH 3 0
BBX 3 4 0 1
BITMAP
24
BC
BC
10
ENDCHAR
STARTCHAR ellipsis
ENCODING 8230
SWIDTH 911 0
DWIDTH 9 0
BBX 9 2 0 0
BITMAP
A19280
B1D380
ENDCHAR
STARTCHAR perthousand
ENCODING 8240
SWIDTH 1223 0
DWIDTH 12 0
BBX 12 8 0 0
BITMAP
141400
7E2000
A66000
7EC000
159928
037B7A
05776A
0C2D3D
ENDCHAR
STARTCHAR guilsinglleft
ENCODING 8249
SWIDTH 383 0
DWIDTH 4 0
BBX 4 5 0 0
BITMAP
1E
7C
B4
3D
0D
ENDCHAR
STARTCHAR guilsinglright
ENCODING 8250
SWIDTH 383 0
DWIDTH 4 0
BBX 4 5 0 0
BITMAP
B4
7C
2E
78
A0
ENDCHAR
STARTCHAR fraction
ENCODING 8260
SWIDTH 433 0
DWIDTH 4 0
BBX 5 8 0 0
BITMAP
0080
0180
0240
0600
0800
1800
3000
6000
ENDCHAR
STARTCHAR Euro
ENCODING 8364
SWIDTH 612 0
DWIDTH 6 0
BBX 6 8 0 0
BITMAP
06A0
1FE0
3D40
BFD0
7E80
7D40
2FA0
0BE0
ENDCHAR
STARTCHAR trademark
ENCODING 8482
SWIDTH 840 0
DWIDTH 8 0
BBX 8 5 0 2
BITMAP
5541
BEEB
28FF
28EB
1482
ENDCHAR
STARTCHAR minus
ENCODING 8722
SWIDTH 581 0
DWIDTH 6 0
BBX 6 2 0 2
BITMAP
6A90
BFD0
ENDCHAR
STARTCHAR f_f
ENCODING 64256
SWIDTH 803 0
DWIDTH 8 0
BBX 8 8 0 0
BITMAP
0A19
2F7E
3DB8
BFFF
7DB9
3874
3874
2874
ENDCHAR
STARTCHAR fi
ENCODING 64257
SWIDTH 709 0
DWIDTH 7 0
BBX 7 8 0 0
BITMAP
0A24
2F38
3D10
BF78
7D38
3838
3838
3838
ENDCHAR
STARTCHAR fl
ENCODING 64258
SWIDTH 774 0
DWIDTH 8 0
BBX 8 8 0 0
BITMAP
0A24
2F38
3D38
BF78
7D78
3838
383D
382E
ENDCHAR
STARTCHAR f_f_i
ENCODING 64259
SWIDTH 1059 0
DWIDTH 11 0
BBX 11 8 0 0
BITMAP
0A1960
2F7E70
3DB810
BFFFB0
7DB9B4
3874B4
3874B4
287470
ENDCHAR
STARTCHAR .notdef
ENCODING -1
SWIDTH 500 0
DWIDTH 5 0
BBX 1 1 0 0
BITMAP
00
ENDCHAR
STARTCHAR .null
ENCODING -1
SWIDTH 0 0
DWIDTH 0 0
BBX 1 1 0 0
BITMAP
00
ENDCHAR
STARTCHAR nonmarkingreturn
ENCODING -1
SWIDTH 333 0
DWIDTH 3 0
BBX 1 1 0 0
BITMAP
00
ENDCHAR
STARTCHAR f_t
ENCODING -1
SWIDTH 814 0
DWIDTH 8 0
BBX 8 8 0 0
BITMAP
0A00
2F74
3D78
BFFF
7DB9
3874
387D
282E
ENDCHAR
STARTCHAR t_t
ENCODING -1
SWIDTH 794 0
DWIDTH 8 0
BBX 8 7 0 0
BITMAP
3874
3DB4
BFFE
7DB9
3874
3E79
1F2D
ENDCHAR
STARTCHAR l_l
ENCODING -1
SWIDTH 626 0
DWIDTH 6 0
BBX 6 8 0 0
BITMAP
6280
B3C0
B3C0
B3C0
B3C0
B3C0
BAE0
39F0
ENDCHAR
STARTCHAR j_j
ENCODING -1
SWIDTH 521 0
DWIDTH 5 0
BBX 7 11 -2 -3
BITMAP
0624
0B38
0100
0B38
0B38
0B38
0B38
0B38
1F78
7DF4
1050
ENDCHAR
ENDFONT
